<?xml version="1.0" encoding="utf-8"?>
<!-- Generator: Adobe Illustrator 18.0.0, SVG Export Plug-In . SVG Version: 6.00 Build 0)  -->
<!DOCTYPE svg PUBLIC "-//W3C//DTD SVG 1.1//EN" "http://www.w3.org/Graphics/SVG/1.1/DTD/svg11.dtd">
<svg version="1.1" id="Capa_1" xmlns="http://www.w3.org/2000/svg" xmlns:xlink="http://www.w3.org/1999/xlink" x="0px" y="0px"
	 viewBox="0 0 31 31" enable-background="new 0 0 31 31" xml:space="preserve">
<path fill="#989899" d="M25.4,14.6c0-1.5,0.1-3-0.1-4.5c0,0,0,0,0-0.1c0,0,0-0.1,0-0.1c0-0.1,0-0.2,0-0.3c-0.1-0.6-0.1-1.1-0.1-1.7
	c0-1.1-0.9-1.4-1.8-1.5c-3-0.2-6-0.3-9-0.5C12.7,5.9,11,5.7,9.4,5.7c-0.4,0-0.9,0-1.4,0C8.1,5.9,8,6,7.9,6c-0.4-0.1-1,0-1.4,0.3
	C6,6.5,5.7,6.9,5.6,7.6c0,0.1-0.1,0.2-0.2,0.2c0,0.2,0,0.3,0,0.5c0,0.2,0,0.3,0,0.5c0,0,0,0,0,0c0,0.2,0,0.4,0,0.6
	c0,3,0.3,5.8,0.5,8.8c0.1,1.4,0.3,2.9,0.3,4.3c0,0.8,0,2,1,2.2C8,24.8,8.8,24.9,9.6,25c1.5,0.1,3.1,0.2,4.6,0.3c0.7,0,1.3,0,2,0
	c0.8,0,1.5,0.1,2.3,0c1.3-0.1,2.7,0.1,4-0.1c0.6-0.1,1.3,0.2,1.8-0.1c0.6-0.3,0.8-1.2,0.8-1.8c0-0.8,0.1-1.6,0.1-2.4
	c0-0.7,0.2-1.5,0.1-2.2C25.3,17.3,25.4,16,25.4,14.6z M19,10.5c0-0.5,0.1-1,0.1-1.4C19,9,19,8.9,19,8.8c0.2-0.5,0-1.1,0.6-1.2
	c0.7-0.2,1.7-0.2,2.4-0.1c1.6,0.3,1.3,2.4,1.1,3.6c-0.3,1.4-2.6,1.5-3.7,0.9C18.9,11.6,18.9,11.1,19,10.5z M12,14c0,0,0-0.1,0-0.1
	c0.7-1.2,1.5-1.6,2.8-1.9c1.2-0.2,2.2-0.2,3.3,0.6c0.5,0.4,0.8,1.2,0.9,1.9c0,0,0,0,0,0c0.1,0,0.1,0.2,0,0.2c0,0.2,0,0.5,0,0.7
	c0,1.1-0.6,2.1-1.3,3c-0.7,0.8-2,0.9-3,0.7c-0.9-0.1-2.3-0.3-2.9-1.1C11.2,16.7,11.3,15.2,12,14z M21.9,23.2
	c-1.3,0.2-2.6,0.3-3.9,0.3c-0.7,0-1.3,0.1-2,0.1c-0.7-0.1-1.3-0.1-2-0.1c-1.5,0-3-0.1-4.5-0.1c-0.8,0-1.3-0.3-1.5-1.1
	c-0.3-1.3-0.5-2.5-0.4-3.9c0,0,0,0,0,0c-0.1,0,0-0.1,0-0.1c0,0,0,0,0,0c0-0.1,0-0.2,0-0.4c0-0.2,0-0.3,0-0.5c0-1.1,0-2.3,0.1-3.4
	c0-0.5,0.6-1.3,1.2-1.1c0.8,0.2,1.1,1.6,1.2,2.3c0.3,1.2,0.1,2.6,0.6,3.8c0.3,0.8,0.7,1.4,1.6,1.7c0.7,0.2,1.4,0.3,2.1,0.3
	c0.8,0,1.5,0,2.3-0.2c0.7-0.2,1.3-0.4,2-0.6c0.5-0.2,0.9-0.5,1.3-0.8c0,0,0,0,0,0c0,0,0-0.1,0-0.1c0,0,0,0,0,0
	c0.7-0.8,1-1.8,1.2-2.9c0.1-0.8,0.3-1.4,0.9-2c0.4-0.4,0.9,0.3,1.1,0.6c0.2,0.4,0.1,1.1,0.2,1.4c0.1,0.6,0.1,1.1,0.1,1.7
	C23.4,19.8,24,22.9,21.9,23.2z"/>
</svg>
