<?xml version="1.0" encoding="utf-8"?>
<!-- Generator: Adobe Illustrator 18.0.0, SVG Export Plug-In . SVG Version: 6.00 Build 0)  -->
<!DOCTYPE svg PUBLIC "-//W3C//DTD SVG 1.1//EN" "http://www.w3.org/Graphics/SVG/1.1/DTD/svg11.dtd">
<svg version="1.1" id="Capa_1" xmlns="http://www.w3.org/2000/svg" xmlns:xlink="http://www.w3.org/1999/xlink" x="0px" y="0px"
	 viewBox="0 0 31 31" enable-background="new 0 0 31 31" xml:space="preserve">
<path fill="#FFFFFF" d="M22.6,4.4c-0.2,0-0.4,0-0.7,0c-2.2,0.2-4.3,1.6-5.8,3.8c-1.7-2.6-4.6-4.2-7.3-4.2c-0.6,0-1.2,0.1-1.8,0.2
	c-1.8,0.5-3.2,1.8-4,3.6c-0.8,2-0.7,4.4,0.4,6.2c1.5,2.5,4,4,6.4,5.4c1.2,0.8,2.5,1.5,3.6,2.4c0.3,0.3,0.7,0.6,1.1,1
	c-0.4,0.4-1.3,1.9-1.3,1.9c-0.3,0.6-0.7,1.8-0.3,2.7c0.1,0.4,0.4,0.7,0.8,0.8c0.2,0.1,0.4,0.1,0.6,0.1c0.9,0,1.6-0.8,2.2-1.5
	c0.9-1.2,1.1-2.5,0.4-3.9c1.1-1,2.4-2,3.6-2.9c2.1-1.6,4.2-3.2,5.9-5.3c0.8-1,3.4-4.6,1.6-7.9C26.9,5.4,24.9,4.4,22.6,4.4L22.6,4.4z
	 M15.2,25.8c-0.2,0.3-0.3,0.6-0.5,0.7c0-0.5,0.2-1,0.3-1.2c0-0.1,0.3-0.4,0.4-0.6C15.5,25,15.4,25.4,15.2,25.8L15.2,25.8z M13.2,7.5
	c0.5,0.4,1,0.9,1.4,1.5c0,0.1,0.1,0.2,0.2,0.3c0.5,0.8,1,1.6,1.6,1.6c0.3,0,0.5-0.2,0.7-0.6c1.2-2.5,3.1-3.9,5.4-4.2
	c0.1,0,0.3,0,0.4,0c1.7,0,3.3,1,3.8,2.5c0.7,2-0.4,4.3-3.4,7.2c-1.3,1.2-2.7,2.3-4.1,3.4c-1.1,0.8-2.2,1.7-3.3,2.6
	c-0.9-1-2.2-1.9-3.2-2.6c-0.6-0.4-1.2-0.8-1.9-1.2c-3.3-2-7-4.2-6.4-8.4c0.3-2.4,2.1-3.9,4.5-3.9c0.2,0,0.4,0,0.5,0
	C10.7,6,12.1,6.6,13.2,7.5L13.2,7.5z M13.2,7.5"/>
</svg>
