<?xml version="1.0" encoding="utf-8"?>
<!-- Generator: Adobe Illustrator 18.0.0, SVG Export Plug-In . SVG Version: 6.00 Build 0)  -->
<!DOCTYPE svg PUBLIC "-//W3C//DTD SVG 1.1//EN" "http://www.w3.org/Graphics/SVG/1.1/DTD/svg11.dtd">
<svg version="1.1" id="Capa_1" xmlns="http://www.w3.org/2000/svg" xmlns:xlink="http://www.w3.org/1999/xlink" x="0px" y="0px"
	 viewBox="0 0 31 31" enable-background="new 0 0 31 31" xml:space="preserve">
<g>
	<defs>
		<rect id="SVGID_1_" x="2.1" y="3.6" width="25.9" height="25.5"/>
	</defs>
	<clipPath id="SVGID_2_">
		<use xlink:href="#SVGID_1_"  overflow="visible"/>
	</clipPath>
	<g clip-path="url(#SVGID_2_)">
		<path fill="#989899" d="M24.7,7.3c0-0.1-0.1-0.1-0.1-0.2c-0.1-0.2-0.3-0.3-0.5-0.3c0-0.2-0.2-0.5-0.5-0.4c-3,0.7-6.1,1.4-9,2.4
			c-2.1,0.7-4.3,1.4-6.4,2.2c-0.9,0.3-2.2,0.6-3,1.2c-0.2,0.1-0.2,0.3-0.1,0.5C5,12.7,4.9,13,5.1,13.1c1,1.2,2.5,3.4,4.2,3.8
			c-0.2,2.6-0.4,5.5,0.6,8c0.1,0.3,0.4,0.4,0.7,0.2c0.1-0.1,0.2-0.2,0.3-0.3c0.7,0.1,1.5-0.6,2.1-0.9c0.7-0.5,1.5-1,2.2-1.5
			c0.3-0.2,0.8-0.5,1.1-0.8c0.8,0.5,1.6,1,2.6,1.2c1.6,0.3,1.8-0.2,2.4-1.5c1.2-2.3,2-5,2.8-7.5C24.7,11.7,25.4,9.4,24.7,7.3
			L24.7,7.3z M10.2,20.7c0,0.5-0.1,1.2-0.1,1.9c-0.3-1.8-0.2-3.8-0.3-5.6c0.3,0,0.5-0.1,0.8-0.1C10.5,18.1,10.3,19.4,10.2,20.7
			L10.2,20.7z M5.7,13c3.3-1.1,6.5-2.3,9.8-3.4c2.1-0.7,4.5-0.8,6.7-1.6c-0.7,0.5-1.3,1.1-2,1.5c-1.5,1-3.2,1.8-4.8,2.7
			c-1.4,0.8-2.5,1.9-3.8,2.9C9.1,17,7.5,14.6,5.7,13L5.7,13z M19.9,11.6c0-0.1,0-0.2,0-0.3c0-0.1,0-0.3,0-0.4
			c0.5-0.3,0.9-0.5,1.4-0.8c0.1,0,0.2-0.1,0.2-0.1c-0.3,0.3-0.6,0.6-0.9,0.9C20.3,11.1,20.1,11.3,19.9,11.6L19.9,11.6z M19.5,12
			c-0.1,0.1-0.2,0.2-0.3,0.3c-0.1-0.3-0.1-0.7-0.2-1c0.2-0.1,0.3-0.2,0.5-0.2C19.4,11.4,19.4,11.7,19.5,12L19.5,12z M17.7,14
			c-0.2,0.2-0.4,0.4-0.6,0.6c0-0.1-0.2-0.1-0.3-0.1c-0.1-0.6-0.2-1.3-0.3-1.9c0.2-0.1,0.5-0.3,0.7-0.4C17.2,12.9,17.2,14,17.7,14
			L17.7,14z M17.6,13c0-0.3,0-0.6-0.1-0.9c0.3-0.2,0.7-0.4,1-0.5c0,0.4,0.1,0.8,0.2,1.2c-0.3,0.3-0.6,0.6-0.9,1c0,0-0.1,0-0.1,0
			C17.7,13.6,17.6,13.1,17.6,13L17.6,13z M16.5,15.3c-0.4,0.4-0.7,0.8-1,1.3c0,0,0,0,0,0c0-0.1,0-0.2-0.1-0.3c0-0.3,0-0.6-0.1-1
			c0-0.5,0-1.1,0-1.6c0-0.1,0-0.1-0.1-0.1c0.3-0.2,0.6-0.5,1-0.7C16.2,13.7,16.3,14.5,16.5,15.3L16.5,15.3z M14.9,16.2
			c0,0.2,0.1,0.5,0.2,0.7c-0.2,0.3-0.4,0.5-0.6,0.8c0-0.5-0.1-1-0.1-1.4c-0.1-0.6-0.1-1.3-0.3-1.9c0.3-0.2,0.5-0.5,0.8-0.7
			c0,0,0,0,0.1,0C15,14.5,14.9,15.4,14.9,16.2L14.9,16.2z M13.5,19.6c0,0,0.1,0.1,0.1,0.1c-0.1,0.1-0.2,0.2-0.3,0.3
			c-0.2-1.5-0.1-3-0.2-4.5c0,0,0-0.1,0-0.1c0.3-0.2,0.6-0.5,0.8-0.7c0.1,0.6,0.1,1.3,0.1,1.9c0,0.6-0.1,1.3,0.1,1.9
			c-0.1,0.2-0.3,0.4-0.4,0.5c0,0,0,0,0,0C13.4,19,13.3,19.4,13.5,19.6L13.5,19.6z M11,23.4c0-2.3,0.2-4.6,0.1-6.8
			c0.6-0.3,1.2-0.6,1.7-1.1c0,0.1,0,0.1,0,0.2c0,0.1,0,0.1,0,0.2c-0.1,1.4-0.2,2.8,0.1,4.1c0,0.1,0.1,0.2,0.3,0.2
			c-0.2,0.3-0.4,0.6-0.6,1c-0.1,0.1-0.2,0.3-0.3,0.4c0.1-0.7,0-1.6,0-2.3c0-1-0.1-2-0.1-3c0-0.1-0.1-0.1-0.1,0c-0.1,1-0.2,2-0.3,3
			c0,0.9-0.3,2.1,0,3c0,0,0,0.1,0.1,0.1C11.5,22.7,11.2,23.1,11,23.4L11,23.4z M14.9,21.4c-0.6,0.5-1.2,0.9-1.8,1.3
			c-0.4,0.3-0.8,0.6-1.2,0.8c0.3-0.4,0.6-0.8,0.8-1.1c0.5-0.7,1.2-1.6,1.5-2.4c0.4,0.3,0.8,0.6,1.2,0.9
			C15.3,21.1,15.1,21.3,14.9,21.4L14.9,21.4z M21.6,17.6c-0.7,1.8-0.9,4.6-3.2,4.1c-1.5-0.3-2.9-1.5-4.1-2.4
			c3.1-3.8,6.6-7.4,9.7-11.2C24.5,11.2,22.7,14.8,21.6,17.6L21.6,17.6z M21.6,17.6"/>
		<path fill="#989899" d="M6.9,21.8c-0.1-0.4-0.2-0.8-0.3-1.2c0-0.3-0.4-0.3-0.4,0c0,0.4,0,0.8,0.1,1.2c0.1,0.4,0.2,0.8,0.4,1.2
			c0.1,0.2,0.5,0.2,0.5-0.1C7.3,22.5,7.1,22.2,6.9,21.8L6.9,21.8z M6.9,21.8"/>
		<path fill="#989899" d="M6.4,23.1c-0.2-0.4-0.5-0.7-0.7-1.1c-0.2-0.5-0.2-1.1-0.1-1.6c0-0.3-0.3-0.4-0.4-0.1
			c-0.4,1-0.2,2.6,0.8,3.3C6.3,23.7,6.5,23.4,6.4,23.1L6.4,23.1z M6.4,23.1"/>
		<path fill="#989899" d="M15.6,23.9c0-0.2-0.2-0.2-0.4-0.2C15,23.9,15,24,14.9,24.2c-0.1,0.2-0.2,0.3-0.3,0.4
			c-0.3,0.3-0.6,0.5-1,0.7c-0.3,0.1-0.1,0.6,0.2,0.5c0.4-0.1,0.8-0.4,1.2-0.6C15.2,24.9,15.7,24.4,15.6,23.9L15.6,23.9z M15.6,23.9"
			/>
		<path fill="#989899" d="M16.4,24.1c-0.3,0.2-0.5,0.6-0.8,0.8c-0.3,0.3-0.6,0.5-0.9,0.8c-0.2,0.2,0,0.5,0.3,0.4
			c0.4-0.2,0.7-0.5,1.1-0.8c0.3-0.2,0.7-0.5,0.8-0.8C17.1,24.2,16.7,23.9,16.4,24.1L16.4,24.1z M16.4,24.1"/>
	</g>
</g>
</svg>
