<?xml version="1.0" encoding="utf-8"?>
<!-- Generator: Adobe Illustrator 18.0.0, SVG Export Plug-In . SVG Version: 6.00 Build 0)  -->
<!DOCTYPE svg PUBLIC "-//W3C//DTD SVG 1.1//EN" "http://www.w3.org/Graphics/SVG/1.1/DTD/svg11.dtd">
<svg version="1.1" id="Capa_1" xmlns="http://www.w3.org/2000/svg" xmlns:xlink="http://www.w3.org/1999/xlink" x="0px" y="0px"
	 viewBox="0 0 31 31" enable-background="new 0 0 31 31" xml:space="preserve">
<path fill="#EBC8CA" d="M22.2,5.1c-0.2,0-0.4,0-0.6,0c-2.1,0.2-4,1.5-5.4,3.6c-1.6-2.4-4.3-3.9-6.9-3.9c-0.6,0-1.1,0.1-1.7,0.2
	c-1.7,0.4-3,1.7-3.7,3.4c-0.8,1.9-0.6,4.1,0.3,5.8c1.4,2.3,3.7,3.7,6,5.1c1.2,0.7,2.4,1.4,3.4,2.3c0.3,0.2,0.7,0.6,1,0.9
	c-0.4,0.4-1.2,1.8-1.3,1.8c-0.3,0.5-0.6,1.7-0.3,2.6c0.1,0.4,0.4,0.6,0.7,0.8c0.2,0.1,0.4,0.1,0.5,0.1c0.8,0,1.5-0.8,2-1.4
	c0.9-1.2,1-2.4,0.4-3.6c1.1-1,2.2-1.9,3.3-2.7c1.9-1.5,3.9-3,5.5-5c0.8-0.9,3.2-4.3,1.5-7.4C26.1,6.1,24.3,5.1,22.2,5.1L22.2,5.1z
	 M15.2,25.2c-0.2,0.3-0.3,0.5-0.5,0.7c0-0.5,0.2-0.9,0.3-1.1c0-0.1,0.2-0.4,0.4-0.6C15.5,24.5,15.4,24.8,15.2,25.2L15.2,25.2z
	 M13.3,8c0.5,0.4,0.9,0.9,1.3,1.4c0,0.1,0.1,0.2,0.2,0.3c0.5,0.8,0.9,1.5,1.5,1.5c0.3,0,0.5-0.2,0.7-0.5c1.1-2.3,2.9-3.7,5-3.9
	c0.1,0,0.2,0,0.4,0c1.6,0,3,0.9,3.5,2.4c0.7,1.9-0.4,4.1-3.2,6.7C21.5,17,20.1,18,18.8,19c-1,0.8-2.1,1.6-3,2.5c-0.9-1-2-1.8-3-2.4
	c-0.5-0.4-1.1-0.7-1.8-1.1c-3.1-1.8-6.5-3.9-6-7.8C5.4,8,7,6.5,9.3,6.5c0.2,0,0.3,0,0.5,0C11,6.7,12.3,7.2,13.3,8L13.3,8z M13.3,8"
	/>
</svg>
