<?xml version="1.0" encoding="utf-8"?>
<!-- Generator: Adobe Illustrator 18.0.0, SVG Export Plug-In . SVG Version: 6.00 Build 0)  -->
<!DOCTYPE svg PUBLIC "-//W3C//DTD SVG 1.1//EN" "http://www.w3.org/Graphics/SVG/1.1/DTD/svg11.dtd">
<svg version="1.1" id="Capa_1" xmlns="http://www.w3.org/2000/svg" xmlns:xlink="http://www.w3.org/1999/xlink" x="0px" y="0px"
	 viewBox="0 0 31 31" enable-background="new 0 0 31 31" xml:space="preserve">
<path fill="#EBC8CA" d="M30.3,18.2c-0.1-2.6-0.3-5.1-0.3-7.7c0-1.3,0-2.6-0.1-3.9c-0.1-1.2-0.1-2.5,0.1-3.7c0.1-0.6,0.1-1.4-0.5-1.7
	c-0.2-0.1-0.6-0.1-0.9-0.1c-0.7-0.1-1.4-0.2-2.1-0.3c-2.7-0.1-5.4,0.2-8.1,0.2c-2.5,0-5,0.2-7.6,0.2c-1.2,0-2.5,0-3.7,0
	c-0.5,0-1.1,0-1.7-0.1C4.4,1.1,3,0.8,1.9,1.3C1,1.7,0.9,2.5,0.8,3.3c0,0.6,0.1,1.2,0.1,1.8c0,0.8,0,1.7,0,2.5c0,1.4-0.2,2.8-0.3,4.3
	c-0.1,1.6-0.1,3.1-0.1,4.7c0,1.4-0.2,2.8-0.1,4.2c0.1,1.3-0.2,2.6,0,3.9c0.1,0.9,0.1,1.9,0.1,2.8c0,0,0,0,0,0c0,0,0,0.1,0,0.1
	c0,0,0,0,0,0c0,0.4,0,0.7,0.1,1.1c0.1,0.9,0.9,1.2,1.7,1.3c0.7,0.1,1.3-0.1,2-0.1c0.7,0,1.5,0.1,2.2,0.1c1.6,0.1,3.2,0.1,4.8,0.2
	c3,0.2,6,0.6,9.1,0.5c1.5-0.1,2.9-0.2,4.3-0.3c1.3-0.1,2.6-0.2,3.9-0.5c0.5-0.1,1.3-0.9,1.2-1.4c-0.1-1-0.2-1.9-0.2-2.9
	c0-1.2,0.4-2.4,0.5-3.6C30.4,20.9,30.3,19.5,30.3,18.2z"/>
<path fill="#FFFFFF" d="M25.1,15c0-1.5,0.1-3-0.1-4.5c0,0,0,0,0-0.1c0,0,0-0.1,0-0.1c0-0.1,0-0.2,0-0.3c-0.1-0.6-0.1-1.1-0.1-1.7
	c0-1.1-0.9-1.5-1.9-1.5c-3-0.2-6.1-0.4-9.1-0.5C12.2,6.1,10.6,5.9,9,5.9c-0.5,0-0.9,0-1.4,0c0,0.1,0,0.2-0.2,0.2C7,6,6.4,6.1,6,6.4
	C5.5,6.7,5.2,7.1,5.1,7.8C5.1,8,5,8.1,4.9,8.1c0,0.2,0,0.3,0,0.5c0,0.2,0,0.3,0,0.5c0,0,0,0,0,0c0,0.2,0,0.4,0,0.6
	c0,3,0.3,5.9,0.6,8.9c0.1,1.4,0.3,2.9,0.3,4.4c0,0.8,0,2,1,2.2c0.8,0.2,1.6,0.3,2.4,0.3c1.6,0.1,3.1,0.2,4.7,0.3c0.7,0,1.3,0,2,0
	c0.8,0,1.6,0.1,2.4,0c1.3-0.2,2.8,0.1,4.1-0.1c0.6-0.1,1.3,0.2,1.8-0.1c0.6-0.4,0.8-1.2,0.9-1.8c0-0.8,0.1-1.6,0.1-2.4
	c0-0.7,0.2-1.5,0.1-2.2C25.1,17.6,25.1,16.3,25.1,15z M18.6,10.7c0-0.5,0.1-1,0.1-1.5c-0.1-0.1-0.1-0.1-0.1-0.2
	c0.2-0.5,0-1.1,0.7-1.3c0.7-0.2,1.7-0.2,2.5-0.1c1.6,0.3,1.3,2.5,1.1,3.6c-0.3,1.4-2.7,1.5-3.7,0.9C18.6,11.9,18.6,11.4,18.6,10.7z
	 M11.6,14.3c0,0,0-0.1,0-0.1c0.7-1.3,1.5-1.7,2.9-1.9c1.2-0.2,2.3-0.2,3.3,0.6c0.5,0.4,0.8,1.2,1,1.9c0,0,0,0,0,0
	c0.1,0,0.1,0.2,0,0.2c0,0.2,0,0.5,0,0.7c0,1.1-0.6,2.2-1.3,3c-0.7,0.8-2,0.9-3,0.8c-0.9-0.1-2.3-0.3-2.9-1.2
	C10.7,17.1,10.9,15.6,11.6,14.3z M21.6,23.7c-1.3,0.2-2.6,0.3-4,0.3c-0.7,0-1.3,0.1-2,0.1c-0.7-0.1-1.4-0.1-2-0.1
	c-1.5,0-3.1-0.1-4.6-0.1c-0.8,0-1.3-0.3-1.5-1.1C7.1,21.4,7,20.1,7,18.7c0,0,0-0.3,0-0.3C7,18.4,7,18,7,18c0,0,0,0,0,0
	c0,0,0,0.1,0,0c0-0.2,0-0.1,0-0.3c0-1.2,0-2.3,0.1-3.4c0-0.5,0.6-1.2,1.2-1.1c0.8,0.2,1.1,1.6,1.2,2.3c0.3,1.3,0.1,2.6,0.6,3.8
	c0.3,0.8,0.7,1.4,1.6,1.7c0.7,0.2,1.4,0.3,2.1,0.3c0.8,0,1.5,0,2.3-0.2c0.7-0.2,1.3-0.4,2-0.6c0.5-0.2,0.9-0.5,1.3-0.8c0,0,0,0,0,0
	c0,0,0-0.1,0-0.1c0,0,0,0,0,0c0.7-0.8,1.1-1.9,1.2-2.9c0.1-0.8,0.3-1.4,0.9-2c0.4-0.4,1,0.3,1.2,0.6c0.2,0.4,0.1,1.1,0.2,1.5
	c0.1,0.6,0.1,1.2,0.1,1.7C23.2,20.2,23.7,23.4,21.6,23.7z"/>
</svg>
