<?xml version="1.0" encoding="utf-8"?>
<!-- Generator: Adobe Illustrator 18.0.0, SVG Export Plug-In . SVG Version: 6.00 Build 0)  -->
<!DOCTYPE svg PUBLIC "-//W3C//DTD SVG 1.1//EN" "http://www.w3.org/Graphics/SVG/1.1/DTD/svg11.dtd">
<svg version="1.1" id="Capa_1" xmlns="http://www.w3.org/2000/svg" xmlns:xlink="http://www.w3.org/1999/xlink" x="0px" y="0px"
	 viewBox="0 0 31 31" enable-background="new 0 0 31 31" xml:space="preserve">
<path fill="#C2DCD5" d="M30.3,18.2c-0.1-2.6-0.3-5.1-0.3-7.7c0-1.3,0-2.6-0.1-3.9c-0.1-1.2-0.1-2.5,0.1-3.7c0.1-0.6,0.1-1.4-0.5-1.7
	c-0.2-0.1-0.6-0.1-0.9-0.1c-0.7-0.1-1.4-0.2-2.1-0.3c-2.7-0.1-5.4,0.2-8.1,0.2c-2.5,0-5,0.2-7.6,0.2c-1.2,0-2.5,0-3.7,0
	c-0.5,0-1.1,0-1.7-0.1C4.4,1.1,3,0.8,1.9,1.3c-0.9,0.4-1.1,1.2-1.1,2c0,0.6,0.1,1.2,0.1,1.8c0,0.8,0,1.7,0,2.5
	c0,1.4-0.2,2.8-0.3,4.3c-0.1,1.6-0.1,3.1-0.1,4.7c0,1.4-0.2,2.8-0.1,4.2c0.1,1.3-0.2,2.6,0,3.9c0.1,0.9,0.1,1.9,0.1,2.8c0,0,0,0,0,0
	c0,0,0,0.1,0,0.1c0,0,0,0,0,0c0,0.4,0,0.7,0.1,1.1c0.1,0.9,0.9,1.2,1.7,1.3c0.7,0.1,1.3-0.1,2-0.1c0.7,0,1.5,0.1,2.2,0.1
	c1.6,0.1,3.2,0.1,4.8,0.2c3,0.2,6,0.6,9.1,0.5c1.5-0.1,2.9-0.2,4.3-0.3c1.3-0.1,2.6-0.2,3.9-0.5c0.5-0.1,1.3-0.9,1.2-1.4
	c-0.1-1-0.2-1.9-0.2-2.9c0-1.2,0.4-2.4,0.5-3.6C30.4,20.9,30.3,19.5,30.3,18.2z"/>
<path fill="#F0F0F0" d="M16.3,20.8c0,1.2,0.2,2.3,0.3,3.5c0,0.4,0.1,0.8,0.1,1.2c0,0.6-1.6,0.4-1.9,0.4c-0.3,0-0.6,0.1-1,0.1
	c-0.7,0-0.4-1.5-0.4-1.9c0-1.4-0.1-2.9,0-4.3c0-0.7,0.4-2.1,0-2.7c-0.4-0.6-1-0.3-1.6-0.2c-0.5,0.1-1.3,0.4-1.5-0.3
	c-0.1-0.4,0-0.9-0.1-1.4c-0.1-0.6-0.3-1.8,0.5-2.1c0.6-0.2,1.3,0.1,1.9,0.1c0.5,0,0.7-0.4,0.5-0.8c-0.1-0.3,0-0.7,0-1
	c0-0.6-0.1-1.2,0-1.8c0-0.7,0-1.6,0.4-2.2c0.4-0.7,1.2-1,1.9-1.2c0,0,0,0,0,0c0.1,0.1,0.1,0.1,0.2,0.1c0.5-0.2,1.2-0.2,1.8-0.3
	c0,0,0,0,0.1,0c0.3,0.1,0.4,0,0.6,0c0.1,0,0.2,0,0.3,0c0.5,0,1.2,0.2,1.7,0.4c0.3,0.1,0.2,1.1,0.2,1.4c0,0.5,0,1,0,1.5
	c0,0.7-0.5,0.4-0.9,0.3c-0.7-0.1-1.4,0.2-1.9,0.6c-1.1,0.8-1.6,2.2-0.9,3.5c0.2,0.4,1,0.3,1.3,0.2c0.5,0,0.9-0.1,1.4-0.1
	c0.3,0,0.6-0.2,0.9-0.3c0.1,0.9,0.1,1.9,0.3,2.8c0,0.1,0,0.1,0,0.2c0,0,0,0,0,0c0,0,0,0-0.1,0c0,0,0,0,0,0c0,0,0,0.1,0.1,0.1
	c0,0,0,0,0.1,0c-0.1,1.1-2.6,0.5-3.3,0.3c-0.4-0.1-1-0.1-1,0.4C16.2,18.3,16.3,19.6,16.3,20.8z"/>
</svg>
