<?xml version="1.0" encoding="utf-8"?>
<!-- Generator: Adobe Illustrator 18.0.0, SVG Export Plug-In . SVG Version: 6.00 Build 0)  -->
<!DOCTYPE svg PUBLIC "-//W3C//DTD SVG 1.1//EN" "http://www.w3.org/Graphics/SVG/1.1/DTD/svg11.dtd">
<svg version="1.1" id="Capa_1" xmlns="http://www.w3.org/2000/svg" xmlns:xlink="http://www.w3.org/1999/xlink" x="0px" y="0px"
	 viewBox="0 0 31 31" enable-background="new 0 0 31 31" xml:space="preserve">
<g>
	<path fill="#FFFFFF" d="M25.3,1c0.3,0,0.7,0,1,0c0.5,0,1,0.1,1.6,0.2l0.4,0c0.1,0,0.2,0,0.4,0c0,0,0.1,0,0.1,0c0,0,0.1,0.4,0,0.7
		c-0.2,1.4-0.2,3-0.1,4c0.1,1.1,0.1,2.2,0.1,3.3v0.5c0,1.7,0.1,3.5,0.2,5.1c0,0.9,0.1,1.7,0.1,2.6l0,0.6c0,1.1,0.1,2.2,0,3.3
		c0,0.4-0.1,0.9-0.2,1.3c-0.2,0.8-0.3,1.6-0.3,2.4c0,0.8,0.1,1.6,0.2,2.4l0,0.5c-0.1,0.2-0.4,0.4-0.5,0.5c-1.1,0.3-2.3,0.4-3.5,0.4
		l-0.1,0c-0.6,0-1.1,0.1-1.7,0.1c-0.9,0.1-1.7,0.1-2.6,0.2c-0.4,0-0.8,0-1.1,0c-1.8,0-3.6-0.2-5.3-0.3c-0.8-0.1-1.7-0.1-2.5-0.2
		c-1-0.1-1.9-0.1-2.9-0.1c-0.6,0-1.3-0.1-1.9-0.1l-0.8,0c-0.5,0-1-0.1-1.5-0.1c-0.1,0-0.1,0-0.2,0c-0.3,0-0.6,0-0.8,0.1
		c-0.2,0-0.4,0-0.6,0c-0.1,0-0.2,0-0.3,0c-0.3,0-0.9-0.2-0.9-0.5c0-0.3,0.2-0.6,0.1-1c0,0,0.2,0,0.2,0c0,0,0,0,0,0
		c0-0.3-0.2-0.5-0.2-0.8c0-0.7-0.1-1.4-0.2-2.1c-0.1-0.6-0.1-1.3,0-1.9c0-0.6,0.1-1.3,0-1.9c-0.1-0.8,0-1.7,0-2.6c0-0.5,0-1,0-1.5
		l0-0.2c0-1.5,0-3,0.1-4.5c0-0.6,0.1-1.2,0.2-1.8c0.1-0.8,0.2-1.7,0.2-2.5V6.7c0-0.8,0-1.6,0-2.4c0-0.4,0-0.7-0.1-1
		c0-0.3-0.1-0.6-0.1-0.8c0-0.8,0.3-1,0.5-1.1c0.3-0.1,0.6-0.2,1.1-0.2c0.4,0,0.9,0,1.3,0.1c0.2,0,0.5,0,0.7,0.1
		c0.6,0,1.1,0.1,1.8,0.1c1.2,0,2.4,0,3.7,0c1.3,0,2.6,0,3.8-0.1c1.2,0,2.5-0.1,3.7-0.1c1.2,0,2.4-0.1,3.6-0.1
		C22.9,1.1,24.1,1,25.3,1 M25.3,0c-2.4,0-4.7,0.1-7.1,0.1c-2.5,0-5,0.1-7.6,0.1c0,0,0,0,0,0c0,0,0,0,0,0c-1.2,0-2.5,0.1-3.7,0.2
		c-0.5,0-1.1,0-1.7,0C4.6,0.3,3.9,0.2,3.2,0.2c-0.5,0-1,0.1-1.5,0.3c-0.9,0.4-1.1,1.2-1.1,2c0,0.6,0.1,1.2,0.1,1.8
		c0,0.8,0,1.7,0,2.5c0,1.4-0.2,2.8-0.3,4.3c-0.1,1.6-0.1,3.1-0.1,4.7c0,1.4-0.2,2.8-0.1,4.2c0.1,1.3-0.2,2.6,0,3.9
		c0.1,0.9,0.1,1.9,0.1,2.8c0,0,0,0.2,0,0.2c0,0,0,0.3,0,0.3c0,0,0,0,0,0c0,0,0-0.2,0-0.2c0,0.4,0,0.6,0.1,1c0.1,0.9,0.9,1.2,1.7,1.3
		c0.1,0,0.3,0,0.4,0c0.5,0,1-0.1,1.4-0.1c0,0,0.1,0,0.1,0c0.7,0,1.5,0.1,2.2,0.1c1.6,0.1,3.2,0.1,4.8,0.2c2.6,0.2,5.2,0.5,7.9,0.5
		c0.4,0,0.8,0,1.2,0c1.5-0.1,2.9-0.2,4.3-0.3c1.3-0.1,2.6-0.2,3.9-0.5c0.5-0.1,1.3-0.9,1.2-1.4c-0.1-1-0.2-1.9-0.2-2.9
		c0-1.2,0.4-2.4,0.5-3.6c0.1-1.3,0-2.7,0-4c-0.1-2.6-0.3-5.1-0.3-7.7c0-1.3,0-2.6-0.1-3.9c-0.1-1.2-0.1-2.5,0.1-3.7
		c0.1-0.6,0.1-1.4-0.5-1.7c-0.2-0.1-0.6-0.1-0.9-0.1C27.7,0.2,27,0,26.3,0C26,0,25.6,0,25.3,0L25.3,0z"/>
</g>
<path fill="#FFFFFF" d="M24.9,14.1c0-1.5,0.1-3-0.1-4.5c0,0,0,0,0-0.1c0,0,0-0.1,0-0.1c0-0.1,0-0.2,0-0.3c-0.1-0.6-0.1-1.1-0.1-1.7
	c0-1.1-0.9-1.5-1.9-1.5c-3-0.2-6.1-0.4-9.1-0.5C12,5.2,10.4,5.1,8.8,5.1c-0.5,0-0.9,0-1.4,0c0,0.1,0,0.2-0.2,0.2
	c-0.4-0.1-1,0-1.4,0.3C5.3,5.9,5,6.3,4.9,7c0,0.1-0.1,0.2-0.2,0.3c0,0.2,0,0.3,0,0.5c0,0.2,0,0.3,0,0.5c0,0,0,0,0,0
	c0,0.2,0,0.4,0,0.6c0,3,0.3,5.9,0.6,8.9c0.1,1.4,0.3,2.9,0.3,4.4c0,0.8,0,2,1,2.2c0.8,0.2,1.6,0.3,2.4,0.3c1.6,0.1,3.1,0.2,4.7,0.3
	c0.7,0,1.3,0,2,0c0.8,0,1.6,0.1,2.4,0c1.3-0.2,2.8,0.1,4.1-0.1c0.6-0.1,1.3,0.2,1.8-0.1c0.6-0.4,0.8-1.2,0.9-1.8
	c0-0.8,0.1-1.6,0.1-2.4c0-0.7,0.2-1.5,0.1-2.2C24.9,16.8,24.9,15.5,24.9,14.1z M18.4,9.9c0-0.5,0.1-1,0.1-1.5
	c-0.1-0.1-0.1-0.1-0.1-0.2c0.2-0.5,0-1.1,0.7-1.3c0.7-0.2,1.7-0.2,2.5-0.1c1.6,0.3,1.3,2.5,1.1,3.6C22.4,11.9,20,12,19,11.4
	C18.4,11,18.4,10.5,18.4,9.9z M11.4,13.5c0,0,0-0.1,0-0.1c0.7-1.3,1.5-1.7,2.9-1.9c1.2-0.2,2.3-0.2,3.3,0.6c0.5,0.4,0.8,1.2,1,1.9
	c0,0,0,0,0,0c0.1,0,0.1,0.2,0,0.2c0,0.2,0,0.5,0,0.7c0,1.1-0.6,2.2-1.3,3c-0.7,0.8-2,0.9-3,0.8c-0.9-0.1-2.3-0.3-2.9-1.2
	C10.5,16.3,10.7,14.7,11.4,13.5z M21.4,22.8c-1.3,0.2-2.6,0.3-4,0.3c-0.7,0-1.3,0.1-2,0.1c-0.7-0.1-1.4-0.1-2-0.1
	c-1.5,0-3.1-0.1-4.6-0.1c-0.8,0-1.3-0.3-1.5-1.1c-0.3-1.3-0.5-2.6-0.4-3.9c0,0,0-0.3,0-0.3c-0.1,0,0-0.4,0-0.4c0,0,0,0,0,0
	c0,0,0,0.1,0,0c0-0.2,0-0.1,0-0.3c0-1.2,0-2.3,0.1-3.4c0-0.5,0.6-1.2,1.2-1.1C9,12.6,9.2,14,9.4,14.7c0.3,1.3,0.1,2.6,0.6,3.8
	c0.3,0.8,0.7,1.4,1.6,1.7c0.7,0.2,1.4,0.3,2.1,0.3c0.8,0,1.5,0,2.3-0.2c0.7-0.2,1.3-0.4,2-0.6c0.5-0.2,0.9-0.5,1.3-0.8c0,0,0,0,0,0
	c0,0,0-0.1,0-0.1c0,0,0,0,0,0c0.7-0.8,1.1-1.9,1.2-2.9c0.1-0.8,0.3-1.4,0.9-2c0.4-0.4,1,0.3,1.2,0.6c0.2,0.4,0.1,1.1,0.2,1.5
	c0.1,0.6,0.1,1.2,0.1,1.7C23,19.3,23.5,22.6,21.4,22.8z"/>
</svg>
