<?xml version="1.0" encoding="utf-8"?>
<!-- Generator: Adobe Illustrator 18.0.0, SVG Export Plug-In . SVG Version: 6.00 Build 0)  -->
<!DOCTYPE svg PUBLIC "-//W3C//DTD SVG 1.1//EN" "http://www.w3.org/Graphics/SVG/1.1/DTD/svg11.dtd">
<svg version="1.1" id="Capa_1" xmlns="http://www.w3.org/2000/svg" xmlns:xlink="http://www.w3.org/1999/xlink" x="0px" y="0px"
	 viewBox="0 0 31 31" enable-background="new 0 0 31 31" xml:space="preserve">
<path fill="#FFFFFF" d="M18.6,5.7C13,5,5.2,6,2.8,12c-1,2.5-1.2,6.1,1.1,8.1c2.7,2.3,6.3,1.9,9.6,2c0.1,1.5,0.5,3.2,1,4.6
	c0.2,0.5,0.8,0.5,1.1,0.1c0.6-0.8,0.8-1.8,1.1-2.7c0.1-0.5,0.5-1.2,0.4-1.8c0.1,0,0.1,0,0.2,0c4.5-1.7,10.9,0,11.7-6.4
	C29.6,10,23.7,6.4,18.6,5.7L18.6,5.7z M27.2,17.9c-1.4,3.2-7.5,2.2-10.3,3.3c-0.3,0.1-0.4,0.4-0.4,0.6c-0.7,0.1-0.8,1-0.9,1.6
	c-0.1,0.5-0.3,1.1-0.4,1.6c-0.3-1.2-0.6-2.5-1.1-3.6c-0.1-0.3-0.4-0.2-0.6,0c-1.9-0.4-3.8-0.5-5.8-0.8c-5.8-0.8-5-7.2-2.3-10.5
	C8.6,6.4,14.9,6.3,19.2,7C24.2,7.9,29.7,12.3,27.2,17.9L27.2,17.9z M27.2,17.9"/>
</svg>
