<?xml version="1.0" encoding="utf-8"?>
<!-- Generator: Adobe Illustrator 18.0.0, SVG Export Plug-In . SVG Version: 6.00 Build 0)  -->
<!DOCTYPE svg PUBLIC "-//W3C//DTD SVG 1.1//EN" "http://www.w3.org/Graphics/SVG/1.1/DTD/svg11.dtd">
<svg version="1.1" id="Capa_1" xmlns="http://www.w3.org/2000/svg" xmlns:xlink="http://www.w3.org/1999/xlink" x="0px" y="0px"
	 viewBox="0 0 31 31" enable-background="new 0 0 31 31" xml:space="preserve">
<g>
	<path fill="#FFFFFF" d="M26.1,1c0.3,0,0.7,0,1,0c0.5,0,1,0.1,1.6,0.2l0.4,0c0.1,0,0.2,0,0.4,0c0,0,0.1,0,0.1,0c0,0,0.1,0.4,0,0.7
		c-0.2,1.4-0.2,3-0.1,4c0.1,1.1,0.1,2.2,0.1,3.3v0.5c0,1.7,0.1,3.5,0.2,5.1c0,0.9,0.1,1.7,0.1,2.6l0,0.6c0,1.1,0.1,2.2,0,3.3
		c0,0.4-0.1,0.9-0.2,1.3c-0.2,0.8-0.3,1.6-0.3,2.4c0,0.8,0.1,1.6,0.2,2.4l0,0.5c-0.1,0.2-0.4,0.4-0.5,0.5c-1.1,0.3-2.3,0.4-3.5,0.4
		l-0.1,0c-0.6,0-1.1,0.1-1.7,0.1c-0.9,0.1-1.7,0.1-2.6,0.2c-0.4,0-0.8,0-1.1,0c-1.8,0-3.6-0.2-5.3-0.3c-0.8-0.1-1.7-0.1-2.5-0.2
		c-1-0.1-1.9-0.1-2.9-0.1c-0.6,0-1.3-0.1-1.9-0.1l-0.8,0c-0.5,0-1-0.1-1.5-0.1c-0.1,0-0.1,0-0.2,0c-0.3,0-0.6,0-0.8,0.1
		c-0.2,0-0.4,0-0.6,0c-0.1,0-0.2,0-0.3,0c-0.3,0-0.9-0.2-0.9-0.5c0-0.3,0.2-0.6,0.1-1c0,0,0.2,0,0.2,0c0,0,0,0,0,0
		c0-0.3-0.2-0.5-0.2-0.8c0-0.7-0.1-1.4-0.2-2.1c-0.1-0.6-0.1-1.3,0-1.9c0-0.6,0.1-1.3,0-1.9c-0.1-0.8,0-1.7,0-2.6c0-0.5,0-1,0-1.5
		l0-0.2c0-1.5,0-3,0.1-4.5c0-0.6,0.1-1.2,0.2-1.8c0.1-0.8,0.2-1.7,0.2-2.5V6.7c0-0.8,0-1.6,0-2.4c0-0.4,0-0.7-0.1-1
		c0-0.3-0.1-0.6-0.1-0.8c0-0.8,0.3-1,0.5-1.1C3.2,1.3,3.6,1.2,4,1.2c0.4,0,0.9,0,1.3,0.1c0.2,0,0.5,0,0.7,0.1c0.6,0,1.1,0.1,1.8,0.1
		c1.2,0,2.4,0,3.7,0c1.3,0,2.6,0,3.8-0.1c1.2,0,2.5-0.1,3.7-0.1c1.2,0,2.4-0.1,3.6-0.1C23.8,1.1,25,1,26.1,1 M26.1,0
		c-2.4,0-4.7,0.1-7.1,0.1c-2.5,0-5,0.1-7.6,0.1c0,0,0,0,0,0c0,0,0,0,0,0c-1.2,0-2.5,0.1-3.7,0.2c-0.5,0-1.1,0-1.7,0
		C5.5,0.3,4.7,0.2,4,0.2c-0.5,0-1,0.1-1.5,0.3c-0.9,0.4-1.1,1.2-1.1,2c0,0.6,0.1,1.2,0.1,1.8c0,0.8,0,1.7,0,2.5
		c0,1.4-0.2,2.8-0.3,4.3c-0.1,1.6-0.1,3.1-0.1,4.7c0,1.4-0.2,2.8-0.1,4.2c0.1,1.3-0.2,2.6,0,3.9c0.1,0.9,0.1,1.9,0.1,2.8
		c0,0,0,0.2,0,0.2c0,0,0,0.3,0,0.3c0,0,0,0,0,0c0,0,0-0.2,0-0.2c0,0.4,0,0.6,0.1,1c0.1,0.9,0.9,1.2,1.7,1.3c0.1,0,0.3,0,0.4,0
		c0.5,0,1-0.1,1.4-0.1c0,0,0.1,0,0.1,0c0.7,0,1.5,0.1,2.2,0.1c1.6,0.1,3.2,0.1,4.8,0.2c2.6,0.2,5.2,0.5,7.9,0.5c0.4,0,0.8,0,1.2,0
		c1.5-0.1,2.9-0.2,4.3-0.3c1.3-0.1,2.6-0.2,3.9-0.5c0.5-0.1,1.3-0.9,1.2-1.4c-0.1-1-0.2-1.9-0.2-2.9c0-1.2,0.4-2.4,0.5-3.6
		c0.1-1.3,0-2.7,0-4c-0.1-2.6-0.3-5.1-0.3-7.7c0-1.3,0-2.6-0.1-3.9c-0.1-1.2-0.1-2.5,0.1-3.7c0.1-0.6,0.1-1.4-0.5-1.7
		c-0.2-0.1-0.6-0.1-0.9-0.1C28.6,0.2,27.8,0,27.1,0C26.8,0,26.5,0,26.1,0L26.1,0z"/>
</g>
<path fill="#FFFFFF" d="M6,24c0.3-0.2,1-0.3,1.2-0.3c0.8-0.2,1.6-0.5,2.3-0.8c0.7-0.2,1.6-0.4,1.1-1.4c-0.2-0.4-0.7-0.6-1.1-0.8
	c-0.9-0.5-1.7-1-2.4-1.7c-0.4-0.4-0.4-0.2,0.1-0.4c0.3-0.1,1-0.2,1.2-0.5c0.5-0.7-0.6-1.2-1.1-1.5c-0.7-0.5-1.3-1.1-1.9-1.7
	c-0.7-0.6,0.2-0.5,0.7-0.7c1.2-0.5,0.4-1.2,0.1-2.1c-0.3-0.8-0.5-1.7-0.6-2.6c0-0.4,0-0.7,0.1-1.1c0.3-0.9,1.1,0,1.4,0.2
	c0,0,0.1,0,0.1,0c0.6,0.6,1.3,1.2,2,1.7c1.2,0.8,2.3,1.6,3.6,2.1c0.8,0.4,1.9,0.3,2.4-0.5c0.8-1.2,0.5-2.7,1.3-4
	c0.5-0.7,1.1-1.1,1.8-1.4c0.5-0.2,1.4-0.8,2-0.6c1,0.2,1.6,0.5,2,1.4c0.1,0.3,0.3,0.7,0.6,0.7c0.5,0,0.9-0.3,1.4-0.4
	c0.5-0.1,1.2-0.2,1.4-0.6c-0.4,0.7-1.4,1.5-1.4,2.4c0,0.2,0.2,0.4,0.4,0.3c0.8-0.1,1.6-0.3,2.4-0.4c-0.3,0.2-0.6,0.4-0.7,0.5
	c-0.4,0.3-0.7,0.7-1.1,1c-1.1,0.7-0.7,1-0.7,2.2c-0.2,3-1,6.4-3.2,8.6c-2.1,2-4.7,2.9-7.5,3.2C11.5,25.4,8.6,25.3,6,24z"/>
</svg>
